<svg xmlns="http://www.w3.org/2000/svg" viewBox="0 0 128 128">
  <!-- Darker blue background circle - smaller to fit G -->
  <circle cx="64" cy="64" r="42" fill="#5090d0"/>
  
  <!-- G letter - thinner white ring with right horizontal bar -->
  <g fill="white">
    <!-- Main ring part of G (outer circle minus inner circle) - thinner -->
    <path d="M 64 24
             A 40 40 0 1 0 64 104
             A 40 40 0 0 0 104 64
             L 104 78
             L 88 78
             L 88 64
             A 24 24 0 0 1 64 40
             A 24 24 0 1 1 88 64
             L 88 78
             L 104 78
             L 104 64
             A 40 40 0 0 0 64 24 Z
             M 64 32
             A 32 32 0 1 0 64 96
             A 32 32 0 0 0 96 64
             L 96 64
             A 32 32 0 0 0 64 32 Z" 
          fill="white" fill-rule="evenodd"/>
    <!-- Right horizontal bar only - thinner -->
    <rect x="82" y="62" width="22" height="4" fill="white"/>
  </g>
</svg>
