<svg xmlns="http://www.w3.org/2000/svg" viewBox="0 0 128 128">
  <defs>
    <!-- Top facet gradient - brightest -->
    <linearGradient id="topFacet" x1="0%" y1="0%" x2="0%" y2="100%">
      <stop offset="0%" style="stop-color:#d0f0ff"/>
      <stop offset="100%" style="stop-color:#8cc8f0"/>
    </linearGradient>
    <!-- Left facet gradient -->
    <linearGradient id="leftFacet" x1="0%" y1="0%" x2="100%" y2="0%">
      <stop offset="0%" style="stop-color:#5090d0"/>
      <stop offset="100%" style="stop-color:#80b8e8"/>
    </linearGradient>
    <!-- Right facet gradient -->
    <linearGradient id="rightFacet" x1="0%" y1="0%" x2="100%" y2="0%">
      <stop offset="0%" style="stop-color:#6098d8"/>
      <stop offset="100%" style="stop-color:#4070b0"/>
    </linearGradient>
    <!-- Bottom facet gradient - darkest -->
    <linearGradient id="bottomFacet" x1="0%" y1="0%" x2="0%" y2="100%">
      <stop offset="0%" style="stop-color:#5080c0"/>
      <stop offset="100%" style="stop-color:#3060a0"/>
    </linearGradient>
    <!-- Center highlight -->
    <radialGradient id="highlight" cx="40%" cy="35%" r="40%">
      <stop offset="0%" style="stop-color:#ffffff;stop-opacity:0.6"/>
      <stop offset="100%" style="stop-color:#ffffff;stop-opacity:0"/>
    </radialGradient>
  </defs>
  
  <!-- Diamond shape - 4 facets -->
  <!-- Top facet -->
  <polygon points="64,6 122,64 64,64" fill="url(#topFacet)"/>
  <polygon points="64,6 6,64 64,64" fill="url(#topFacet)" opacity="0.9"/>
  
  <!-- Left facet -->
  <polygon points="6,64 64,64 64,122" fill="url(#leftFacet)" opacity="0.85"/>
  
  <!-- Right facet -->
  <polygon points="122,64 64,64 64,122" fill="url(#rightFacet)"/>
  
  <!-- Bottom point -->
  <polygon points="64,64 6,64 64,122" fill="url(#bottomFacet)" opacity="0.7"/>
  <polygon points="64,64 122,64 64,122" fill="url(#bottomFacet)" opacity="0.8"/>
  
  <!-- Sparkle lines -->
  <line x1="64" y1="20" x2="64" y2="108" stroke="#a0d8ff" stroke-width="1.5" opacity="0.5"/>
  <line x1="20" y1="64" x2="108" y2="64" stroke="#a0d8ff" stroke-width="1.5" opacity="0.5"/>
  <line x1="35" y1="35" x2="93" y2="93" stroke="#b0e0ff" stroke-width="1" opacity="0.4"/>
  <line x1="93" y1="35" x2="35" y2="93" stroke="#b0e0ff" stroke-width="1" opacity="0.4"/>
  
  <!-- Center highlight -->
  <ellipse cx="54" cy="50" rx="25" ry="20" fill="url(#highlight)"/>
  
  <!-- G letter -->
  <g fill="white" opacity="0.95">
    <path d="M 64 36
             C 48 36, 36 48, 36 60
             C 36 72, 48 84, 64 84
             C 77 84, 88 75, 90 63
             L 90 68
             C 90 68, 90 68, 90 68
             L 66 68
             L 66 58
             L 94 58
             L 94 64
             C 92 78, 79 90, 64 90
             C 44 90, 30 76, 30 60
             C 30 44, 44 30, 64 30
             C 78 30, 89 38, 92 50
             L 86 52
             C 83 42, 74 36, 64 36 Z" 
          fill="white"/>
  </g>
</svg>
